<svg xmlns="http://www.w3.org/2000/svg" xmlns:xlink="http://www.w3.org/1999/xlink" width="500" zoomAndPan="magnify" viewBox="0 0 375 374.999991" height="500" preserveAspectRatio="xMidYMid meet" version="1.0"><defs><g/><clipPath id="id1"><path d="M 8 147.613281 L 98 147.613281 L 98 227.113281 L 8 227.113281 Z M 8 147.613281 " clip-rule="nonzero"/></clipPath><clipPath id="id2"><path d="M 37.253906 150.339844 L 68.753906 150.339844 L 68.753906 224.589844 L 37.253906 224.589844 Z M 37.253906 150.339844 " clip-rule="nonzero"/></clipPath></defs><g clip-path="url(#id1)"><path fill="#ffffff" d="M 70.917969 227.027344 L 35.769531 227.027344 C 34.933594 227.023438 34.117188 226.917969 33.3125 226.703125 C 32.507812 226.488281 31.746094 226.175781 31.023438 225.765625 C 30.300781 225.351562 29.644531 224.855469 29.054688 224.273438 C 28.460938 223.6875 27.957031 223.042969 27.535156 222.328125 L 9.972656 192.109375 C 9.554688 191.390625 9.238281 190.628906 9.023438 189.828125 C 8.804688 189.023438 8.699219 188.207031 8.699219 187.378906 C 8.699219 186.546875 8.804688 185.730469 9.023438 184.929688 C 9.238281 184.125 9.554688 183.367188 9.972656 182.644531 L 27.535156 152.441406 C 27.953125 151.722656 28.453125 151.070312 29.042969 150.480469 C 29.632812 149.894531 30.289062 149.390625 31.011719 148.976562 C 31.734375 148.558594 32.5 148.242188 33.304688 148.027344 C 34.113281 147.808594 34.933594 147.699219 35.769531 147.699219 L 70.917969 147.699219 C 71.753906 147.699219 72.574219 147.808594 73.382812 148.023438 C 74.1875 148.242188 74.953125 148.558594 75.675781 148.972656 C 76.398438 149.390625 77.054688 149.890625 77.644531 150.480469 C 78.234375 151.070312 78.738281 151.722656 79.152344 152.441406 L 96.734375 182.65625 C 97.148438 183.378906 97.460938 184.140625 97.675781 184.941406 C 97.890625 185.742188 98 186.558594 98 187.390625 C 98 188.21875 97.890625 189.035156 97.675781 189.835938 C 97.460938 190.640625 97.148438 191.402344 96.734375 192.121094 L 79.144531 222.339844 C 78.726562 223.050781 78.21875 223.699219 77.628906 224.28125 C 77.039062 224.863281 76.382812 225.359375 75.660156 225.769531 C 74.9375 226.183594 74.175781 226.492188 73.371094 226.707031 C 72.566406 226.917969 71.75 227.027344 70.917969 227.027344 Z M 70.917969 227.027344 " fill-opacity="1" fill-rule="nonzero"/></g><g clip-path="url(#id2)"><path fill="#000000" d="M 44.328125 190.332031 L 41.417969 190.332031 C 41.144531 190.332031 40.871094 190.359375 40.605469 190.410156 C 40.335938 190.464844 40.074219 190.546875 39.824219 190.652344 C 39.570312 190.757812 39.332031 190.886719 39.101562 191.039062 C 38.875 191.195312 38.664062 191.367188 38.472656 191.5625 C 38.277344 191.757812 38.105469 191.972656 37.953125 192.203125 C 37.800781 192.429688 37.675781 192.671875 37.570312 192.929688 C 37.464844 193.183594 37.386719 193.449219 37.332031 193.71875 C 37.277344 193.988281 37.253906 194.261719 37.253906 194.539062 L 37.253906 208.660156 C 37.25 209.738281 37.390625 210.800781 37.664062 211.84375 C 37.941406 212.886719 38.34375 213.875 38.878906 214.8125 C 39.410156 215.746094 40.054688 216.597656 40.808594 217.359375 C 41.566406 218.125 42.402344 218.777344 43.328125 219.316406 L 51.234375 223.96875 C 51.773438 224.28125 52.355469 224.4375 52.976562 224.4375 C 53.597656 224.4375 54.175781 224.28125 54.714844 223.96875 L 62.625 219.316406 C 63.546875 218.777344 64.386719 218.125 65.140625 217.359375 C 65.894531 216.597656 66.539062 215.746094 67.074219 214.8125 C 67.605469 213.875 68.011719 212.886719 68.285156 211.84375 C 68.5625 210.800781 68.699219 209.738281 68.699219 208.660156 L 68.699219 194.539062 C 68.699219 193.992188 68.597656 193.46875 68.390625 192.960938 C 68.1875 192.453125 67.898438 192.003906 67.523438 191.613281 C 67.148438 191.21875 66.710938 190.914062 66.21875 190.691406 C 65.722656 190.46875 65.207031 190.347656 64.667969 190.332031 L 58.839844 190.332031 C 58.421875 190.332031 58.015625 190.253906 57.628906 190.089844 C 57.238281 189.929688 56.898438 189.699219 56.601562 189.398438 C 56.304688 189.097656 56.074219 188.75 55.914062 188.359375 C 55.753906 187.964844 55.675781 187.558594 55.679688 187.132812 L 55.679688 174.492188 C 55.679688 173.894531 55.753906 173.304688 55.910156 172.726562 C 56.0625 172.148438 56.289062 171.601562 56.582031 171.085938 C 56.878906 170.566406 57.238281 170.097656 57.65625 169.671875 C 58.074219 169.25 58.539062 168.890625 59.050781 168.589844 L 60.582031 167.683594 C 61.035156 167.417969 61.449219 167.097656 61.820312 166.71875 C 62.191406 166.34375 62.507812 165.925781 62.773438 165.464844 C 63.035156 165.003906 63.234375 164.515625 63.371094 164.003906 C 63.503906 163.488281 63.574219 162.96875 63.574219 162.433594 L 63.574219 156.519531 C 63.574219 156.117188 63.535156 155.714844 63.457031 155.320312 C 63.378906 154.921875 63.261719 154.539062 63.109375 154.164062 C 62.957031 153.792969 62.769531 153.4375 62.546875 153.101562 C 62.324219 152.765625 62.070312 152.453125 61.789062 152.167969 C 61.507812 151.882812 61.199219 151.628906 60.867188 151.402344 C 60.535156 151.179688 60.183594 150.988281 59.8125 150.835938 C 59.445312 150.679688 59.0625 150.5625 58.671875 150.484375 C 58.277344 150.40625 57.882812 150.367188 57.484375 150.367188 L 48.585938 150.367188 C 48.1875 150.367188 47.792969 150.40625 47.398438 150.484375 C 47.007812 150.5625 46.628906 150.679688 46.257812 150.835938 C 45.890625 150.988281 45.539062 151.179688 45.207031 151.402344 C 44.875 151.628906 44.566406 151.882812 44.285156 152.167969 C 44.003906 152.457031 43.753906 152.765625 43.53125 153.101562 C 43.308594 153.4375 43.121094 153.792969 42.96875 154.167969 C 42.816406 154.539062 42.703125 154.925781 42.625 155.320312 C 42.546875 155.71875 42.511719 156.117188 42.511719 156.519531 L 42.511719 162.449219 C 42.511719 162.980469 42.578125 163.5 42.714844 164.011719 C 42.847656 164.523438 43.046875 165.007812 43.308594 165.46875 C 43.570312 165.929688 43.882812 166.347656 44.253906 166.722656 C 44.625 167.097656 45.035156 167.417969 45.488281 167.683594 L 52.605469 171.839844 C 52.890625 172.011719 53.035156 172.265625 53.042969 172.601562 L 53.042969 173.480469 C 53.042969 173.636719 53 173.785156 52.921875 173.921875 C 52.84375 174.058594 52.738281 174.167969 52.601562 174.246094 C 52.464844 174.328125 52.320312 174.367188 52.164062 174.367188 C 52.007812 174.367188 51.859375 174.328125 51.722656 174.25 C 51.429688 174.074219 51.136719 174.070312 50.839844 174.246094 C 50.542969 174.417969 50.398438 174.679688 50.40625 175.023438 L 50.40625 202.320312 C 50.40625 202.496094 50.371094 202.667969 50.304688 202.828125 C 50.238281 202.992188 50.144531 203.136719 50.019531 203.261719 C 49.894531 203.386719 49.753906 203.484375 49.59375 203.550781 C 49.429688 203.617188 49.261719 203.652344 49.085938 203.652344 C 48.914062 203.652344 48.746094 203.617188 48.582031 203.550781 C 48.421875 203.484375 48.28125 203.386719 48.15625 203.261719 C 48.03125 203.136719 47.9375 202.992188 47.871094 202.828125 C 47.804688 202.667969 47.769531 202.496094 47.769531 202.320312 L 47.769531 193.808594 C 47.769531 193.347656 47.683594 192.902344 47.507812 192.476562 C 47.332031 192.050781 47.085938 191.675781 46.761719 191.347656 C 46.441406 191.023438 46.066406 190.773438 45.644531 190.59375 C 45.226562 190.417969 44.785156 190.332031 44.328125 190.332031 Z M 48.140625 163.074219 C 47.898438 162.941406 47.78125 162.738281 47.78125 162.460938 L 47.78125 156.519531 C 47.78125 156.296875 47.859375 156.101562 48.019531 155.941406 C 48.175781 155.78125 48.363281 155.699219 48.585938 155.695312 L 57.484375 155.695312 C 57.710938 155.695312 57.902344 155.777344 58.0625 155.9375 C 58.222656 156.097656 58.300781 156.292969 58.300781 156.519531 L 58.300781 162.449219 C 58.308594 162.730469 58.191406 162.9375 57.945312 163.074219 L 53.042969 165.9375 Z M 48.140625 163.074219 " fill-opacity="1" fill-rule="nonzero"/></g><g fill="#ffffff" fill-opacity="1"><g transform="translate(101.626469, 226.752356)"><g><path d="M 33.140625 -69.21875 C 43.367188 -69.21875 52.363281 -66.675781 60.125 -61.59375 L 53.578125 -48 C 49.992188 -50.082031 46.144531 -51.789062 42.03125 -53.125 C 37.925781 -54.46875 34.472656 -55.140625 31.671875 -55.140625 C 26.648438 -55.140625 24.140625 -53.476562 24.140625 -50.15625 C 24.140625 -48 25.378906 -46.269531 27.859375 -44.96875 C 30.335938 -43.664062 33.351562 -42.539062 36.90625 -41.59375 C 40.457031 -40.65625 44.007812 -39.515625 47.5625 -38.171875 C 51.113281 -36.835938 54.128906 -34.671875 56.609375 -31.671875 C 59.085938 -28.671875 60.328125 -24.890625 60.328125 -20.328125 C 60.328125 -13.742188 57.75 -8.609375 52.59375 -4.921875 C 47.445312 -1.242188 40.898438 0.59375 32.953125 0.59375 C 27.273438 0.59375 21.664062 -0.382812 16.125 -2.34375 C 10.59375 -4.300781 5.769531 -6.972656 1.65625 -10.359375 L 8.40625 -23.75 C 11.863281 -20.757812 15.9375 -18.300781 20.625 -16.375 C 25.320312 -14.445312 29.492188 -13.484375 33.140625 -13.484375 C 35.941406 -13.484375 38.125 -13.988281 39.6875 -15 C 41.257812 -16.007812 42.046875 -17.492188 42.046875 -19.453125 C 42.046875 -21.347656 41.144531 -22.929688 39.34375 -24.203125 C 37.550781 -25.472656 35.316406 -26.414062 32.640625 -27.03125 C 29.972656 -27.65625 27.078125 -28.488281 23.953125 -29.53125 C 20.828125 -30.570312 17.925781 -31.707031 15.25 -32.9375 C 12.582031 -34.175781 10.347656 -36.148438 8.546875 -38.859375 C 6.753906 -41.566406 5.859375 -44.8125 5.859375 -48.59375 C 5.859375 -54.84375 8.351562 -59.84375 13.34375 -63.59375 C 18.332031 -67.34375 24.929688 -69.21875 33.140625 -69.21875 Z M 33.140625 -69.21875 "/></g></g></g><g fill="#ffffff" fill-opacity="1"><g transform="translate(159.598556, 226.752356)"><g><path d="M 70 0 L 52.59375 0 L 52.59375 -26.59375 L 24.25 -26.59375 L 24.25 0 L 6.84375 0 L 6.84375 -68.4375 L 24.25 -68.4375 L 24.25 -40.28125 L 52.59375 -40.28125 L 52.59375 -68.4375 L 70 -68.4375 Z M 70 0 "/></g></g></g><g fill="#ffffff" fill-opacity="1"><g transform="translate(231.452724, 226.752356)"><g><path d="M 44.484375 0 L 26.5 0 L -0.09375 -68.4375 L 18.484375 -68.4375 L 35.984375 -18.09375 L 53.484375 -68.4375 L 71.375 -68.4375 Z M 44.484375 0 "/></g></g></g><g fill="#ffffff" fill-opacity="1"><g transform="translate(297.734517, 226.752356)"><g><path d="M 24.25 -14.5625 L 53.28125 -14.5625 L 53.28125 0 L 6.84375 0 L 6.84375 -68.4375 L 24.25 -68.4375 Z M 24.25 -14.5625 "/></g></g></g><g fill="#ffffff" fill-opacity="1"><g transform="translate(337.54721, 174.633881)"><g><path d="M 4.429688 -4.53125 L 11.699219 -4.53125 L 13.417969 0 L 16.179688 0 L 8.988281 -18.152344 L 7.09375 -18.152344 L -0.101562 0 L 2.6875 0 Z M 10.753906 -6.964844 L 5.375 -6.964844 L 8.066406 -14.03125 Z M 10.753906 -6.964844 "/></g></g></g><g fill="#ffffff" fill-opacity="1"><g transform="translate(353.773884, 174.633881)"><g><path d="M 8.117188 -15.695312 L 11.445312 -15.695312 L 11.445312 -18.074219 L 2.203125 -18.074219 L 2.203125 -15.695312 L 5.53125 -15.695312 L 5.53125 -2.40625 L 2.203125 -2.40625 L 2.203125 0 L 11.445312 0 L 11.445312 -2.40625 L 8.117188 -2.40625 Z M 8.117188 -15.695312 "/></g></g></g></svg>