<?xml version="1.0" encoding="UTF-8" standalone="no"?>
<svg
   width="500"
   zoomAndPan="magnify"
   viewBox="0 0 375 374.999991"
   height="500"
   preserveAspectRatio="xMidYMid meet"
   version="1.0"
   id="svg603"
   sodipodi:docname="2-s.svg"
   inkscape:version="1.1.2 (0a00cf5339, 2022-02-04)"
   xmlns:inkscape="http://www.inkscape.org/namespaces/inkscape"
   xmlns:sodipodi="http://sodipodi.sourceforge.net/DTD/sodipodi-0.dtd"
   xmlns="http://www.w3.org/2000/svg"
   xmlns:svg="http://www.w3.org/2000/svg">
  <sodipodi:namedview
     id="namedview605"
     pagecolor="#ffffff"
     bordercolor="#666666"
     borderopacity="1.0"
     inkscape:pageshadow="2"
     inkscape:pageopacity="0.0"
     inkscape:pagecheckerboard="0"
     showgrid="false"
     inkscape:zoom="0.422"
     inkscape:cx="629.14692"
     inkscape:cy="328.19905"
     inkscape:window-width="1920"
     inkscape:window-height="1016"
     inkscape:window-x="1920"
     inkscape:window-y="27"
     inkscape:window-maximized="1"
     inkscape:current-layer="svg603" />
  <defs
     id="defs545">
    <g
       id="g537" />
    <clipPath
       id="id1">
      <path
         d="M 8 147.613281 L 98 147.613281 L 98 227.113281 L 8 227.113281 Z M 8 147.613281 "
         clip-rule="nonzero"
         id="path539" />
    </clipPath>
    <clipPath
       id="id2">
      <path
         d="M 37.253906 150.339844 L 68.753906 150.339844 L 68.753906 224.589844 L 37.253906 224.589844 Z M 37.253906 150.339844 "
         clip-rule="nonzero"
         id="path542" />
    </clipPath>
  </defs>
  <g
     clip-path="url(#id1)"
     id="g549"
     transform="matrix(4.1348045,0,0,4.252681,-32.762213,-607.97651)">
    <path
       fill="#000000"
       d="M 70.917969,227.02734 H 35.769531 c -0.835937,-0.004 -1.652343,-0.10937 -2.457031,-0.32422 -0.804688,-0.21484 -1.566406,-0.52734 -2.289062,-0.9375 -0.722657,-0.41406 -1.378907,-0.91015 -1.96875,-1.49218 -0.59375,-0.58594 -1.097657,-1.23047 -1.519532,-1.94532 l -17.5625,-30.21875 c -0.417968,-0.71875 -0.734375,-1.48046 -0.949218,-2.28125 -0.21875,-0.80468 -0.324219,-1.62109 -0.324219,-2.44921 0,-0.83204 0.105469,-1.64844 0.324219,-2.44922 0.214843,-0.80469 0.53125,-1.5625 0.949218,-2.28516 l 17.5625,-30.20312 c 0.417969,-0.71875 0.917969,-1.3711 1.507813,-1.96094 0.589843,-0.58594 1.246093,-1.08985 1.96875,-1.50391 0.722656,-0.41797 1.488281,-0.73437 2.292969,-0.94922 0.808593,-0.21875 1.628906,-0.32812 2.464843,-0.32812 h 35.148438 c 0.835937,0 1.65625,0.10937 2.464843,0.32422 0.804688,0.21875 1.570313,0.53515 2.292969,0.94922 0.722657,0.41796 1.378907,0.91796 1.96875,1.50781 0.589844,0.58984 1.09375,1.24219 1.507813,1.96094 l 17.582031,30.21484 c 0.414063,0.72266 0.726563,1.48437 0.941406,2.28516 C 97.890625,185.74219 98,186.55859 98,187.39062 c 0,0.82813 -0.109375,1.64454 -0.324219,2.44532 -0.214843,0.80468 -0.527343,1.5664 -0.941406,2.28515 l -17.589844,30.21875 c -0.417969,0.71094 -0.925781,1.35938 -1.515625,1.94141 -0.589844,0.58203 -1.246094,1.07812 -1.96875,1.48828 -0.722656,0.41406 -1.484375,0.72266 -2.289062,0.9375 -0.804688,0.21094 -1.621094,0.32031 -2.453125,0.32031 z m 0,0"
       fill-opacity="1"
       fill-rule="nonzero"
       id="path547" />
  </g>
  <g
     clip-path="url(#id2)"
     id="g553"
     transform="matrix(4.1348045,0,0,4.252681,-32.762213,-607.97651)">
    <path
       fill="#ffffff"
       d="m 44.328125,190.33203 h -2.910156 c -0.273438,0 -0.546875,0.0273 -0.8125,0.0781 -0.269531,0.0547 -0.53125,0.13671 -0.78125,0.24218 -0.253907,0.10547 -0.492188,0.23438 -0.722657,0.38672 -0.226562,0.15625 -0.4375,0.32813 -0.628906,0.52344 -0.195312,0.19531 -0.367187,0.41016 -0.519531,0.64062 -0.152344,0.22657 -0.277344,0.46875 -0.382813,0.72657 -0.105468,0.2539 -0.183593,0.51953 -0.238281,0.78906 -0.05469,0.26953 -0.07813,0.54687 -0.07813,0.82031 v 14.1211 c -0.0039,1.07812 0.136719,2.14062 0.410156,3.18359 0.277344,1.04297 0.679688,2.03125 1.214844,2.96875 0.53125,0.93359 1.175782,1.78516 1.929688,2.54687 0.757812,0.76563 1.59375,1.41797 2.519531,1.95704 l 7.90625,4.65234 c 0.539063,0.3125 1.121094,0.46875 1.742187,0.46875 0.621094,0 1.199219,-0.15625 1.738282,-0.46875 L 62.625,219.31641 c 0.921875,-0.53907 1.761719,-1.19141 2.515625,-1.95704 0.753906,-0.76171 1.398437,-1.61328 1.933594,-2.54687 0.53125,-0.9375 0.9375,-1.92578 1.210937,-2.96875 0.277344,-1.04297 0.414063,-2.10547 0.414063,-3.18359 v -14.1211 c 0,-0.54687 -0.101563,-1.07031 -0.308594,-1.57812 -0.203125,-0.50782 -0.492187,-0.95703 -0.867187,-1.34766 -0.375,-0.39062 -0.8125,-0.69922 -1.304688,-0.92187 -0.496094,-0.22266 -1.011719,-0.34375 -1.550781,-0.35938 h -5.828125 c -0.417969,0 -0.824219,-0.0781 -1.210938,-0.24219 -0.390625,-0.16015 -0.730468,-0.39062 -1.027344,-0.6914 -0.296874,-0.30078 -0.527343,-0.64844 -0.6875,-1.03907 -0.160156,-0.39453 -0.238281,-0.80078 -0.234374,-1.22656 v -12.64062 c 0,-0.59766 0.07422,-1.1875 0.230468,-1.76563 0.152344,-0.57812 0.378906,-1.125 0.671875,-1.64062 0.296875,-0.51953 0.65625,-0.98828 1.074219,-1.41407 0.417969,-0.42187 0.882812,-0.78125 1.394531,-1.08203 l 1.53125,-0.90625 c 0.453125,-0.26562 0.867188,-0.58593 1.238281,-0.96484 0.371094,-0.375 0.6875,-0.79297 0.953126,-1.25391 0.261718,-0.46093 0.460937,-0.94922 0.597656,-1.46093 0.132812,-0.51563 0.203125,-1.03516 0.203125,-1.57032 v -5.91406 c 0,-0.40234 -0.03906,-0.80469 -0.117188,-1.19922 -0.07813,-0.39844 -0.195312,-0.78125 -0.347656,-1.15625 -0.152344,-0.37109 -0.339844,-0.72656 -0.5625,-1.0625 -0.222656,-0.33594 -0.476563,-0.64844 -0.757813,-0.93359 -0.28125,-0.28516 -0.589843,-0.53906 -0.921874,-0.76563 -0.332032,-0.22265 -0.683594,-0.41406 -1.054688,-0.5664 -0.367188,-0.15625 -0.75,-0.27344 -1.140625,-0.35157 -0.394531,-0.0781 -0.789063,-0.11718 -1.1875,-0.11718 h -8.898437 c -0.398438,0 -0.792969,0.0391 -1.1875,0.11718 -0.390626,0.0781 -0.769532,0.19532 -1.140626,0.35157 -0.367187,0.15234 -0.71875,0.34375 -1.050781,0.5664 -0.332031,0.22657 -0.640625,0.48047 -0.921875,0.76563 -0.28125,0.28906 -0.53125,0.59765 -0.753906,0.93359 -0.222656,0.33594 -0.410156,0.69141 -0.5625,1.06641 -0.152344,0.37109 -0.265625,0.75781 -0.34375,1.15234 -0.07813,0.39844 -0.113281,0.79688 -0.113281,1.19922 v 5.92969 c 0,0.53125 0.06641,1.05078 0.203125,1.5625 0.132812,0.51172 0.332031,0.99609 0.59375,1.45703 0.261718,0.46094 0.574218,0.87891 0.945312,1.25391 0.371094,0.375 0.78125,0.69531 1.234375,0.96093 l 7.117188,4.15625 c 0.285156,0.17188 0.429687,0.42578 0.4375,0.76172 v 0.87891 c 0,0.15625 -0.04297,0.30469 -0.121094,0.4414 -0.07813,0.13672 -0.183594,0.2461 -0.320313,0.32422 -0.136718,0.082 -0.28125,0.1211 -0.4375,0.1211 -0.15625,0 -0.304687,-0.0391 -0.441406,-0.11719 -0.292968,-0.17578 -0.585937,-0.17969 -0.882812,-0.004 -0.296875,0.17188 -0.441406,0.4336 -0.433594,0.77735 v 27.29687 c 0,0.17578 -0.03516,0.34766 -0.101562,0.50781 -0.06641,0.16407 -0.160157,0.3086 -0.285157,0.4336 -0.125,0.125 -0.265625,0.22265 -0.425781,0.28906 -0.164062,0.0664 -0.332031,0.10156 -0.507812,0.10156 -0.171876,0 -0.339844,-0.0352 -0.503907,-0.10156 -0.160156,-0.0664 -0.300781,-0.16406 -0.425781,-0.28906 -0.125,-0.125 -0.21875,-0.26953 -0.285156,-0.4336 -0.06641,-0.16015 -0.101563,-0.33203 -0.101563,-0.50781 v -8.51172 c 0,-0.46093 -0.08594,-0.90625 -0.261719,-1.33203 -0.175781,-0.42578 -0.421874,-0.80078 -0.746093,-1.1289 -0.320313,-0.32422 -0.695313,-0.57422 -1.117188,-0.75391 -0.417969,-0.17578 -0.859375,-0.26172 -1.316406,-0.26172 z m 3.8125,-27.25781 c -0.242187,-0.13281 -0.359375,-0.33594 -0.359375,-0.61328 v -5.94141 c 0,-0.22266 0.07813,-0.41797 0.238281,-0.57812 0.15625,-0.16016 0.34375,-0.24219 0.566407,-0.2461 h 8.898437 c 0.226563,0 0.417969,0.082 0.578125,0.24219 0.160156,0.16016 0.238281,0.35547 0.238281,0.58203 v 5.92969 c 0.0078,0.28125 -0.109375,0.48828 -0.355469,0.625 l -4.902343,2.86328 z m 0,0"
       fill-opacity="1"
       fill-rule="nonzero"
       id="path551" />
  </g>
</svg>
